<mxfile host="Electron" agent="Mozilla/5.0 (Macintosh; Intel Mac OS X 10_15_7) AppleWebKit/537.36 (KHTML, like Gecko) draw.io/27.0.5 Chrome/134.0.6998.205 Electron/35.3.0 Safari/537.36" version="27.0.5">
  <diagram id="R2lEEEUBdFMjLlhIrx00" name="Page-1">
    <mxGraphModel dx="3835" dy="3665" grid="1" gridSize="10" guides="1" tooltips="1" connect="1" arrows="1" fold="1" page="1" pageScale="1" pageWidth="850" pageHeight="1100" math="0" shadow="0" extFonts="Permanent Marker^https://fonts.googleapis.com/css?family=Permanent+Marker">
      <root>
        <mxCell id="0" />
        <mxCell id="1" parent="0" />
        <mxCell id="khPAnHHUB-JNYANj07W6-84" style="rounded=0;orthogonalLoop=1;jettySize=auto;html=1;exitX=0;exitY=0.75;exitDx=0;exitDy=0;entryX=1;entryY=0;entryDx=0;entryDy=0;endArrow=none;startFill=0;" edge="1" parent="1" source="khPAnHHUB-JNYANj07W6-8" target="khPAnHHUB-JNYANj07W6-82">
          <mxGeometry relative="1" as="geometry" />
        </mxCell>
        <mxCell id="khPAnHHUB-JNYANj07W6-85" style="rounded=0;orthogonalLoop=1;jettySize=auto;html=1;exitX=1;exitY=0.5;exitDx=0;exitDy=0;endArrow=none;startFill=0;" edge="1" parent="1" source="khPAnHHUB-JNYANj07W6-8" target="khPAnHHUB-JNYANj07W6-83">
          <mxGeometry relative="1" as="geometry" />
        </mxCell>
        <mxCell id="khPAnHHUB-JNYANj07W6-86" style="rounded=0;orthogonalLoop=1;jettySize=auto;html=1;exitX=0;exitY=0.5;exitDx=0;exitDy=0;entryX=0.966;entryY=0.653;entryDx=0;entryDy=0;endArrow=none;startFill=0;entryPerimeter=0;" edge="1" parent="1" source="khPAnHHUB-JNYANj07W6-8" target="khPAnHHUB-JNYANj07W6-81">
          <mxGeometry relative="1" as="geometry" />
        </mxCell>
        <mxCell id="khPAnHHUB-JNYANj07W6-94" style="edgeStyle=orthogonalEdgeStyle;rounded=0;orthogonalLoop=1;jettySize=auto;html=1;exitX=0.5;exitY=1;exitDx=0;exitDy=0;entryX=0;entryY=0.5;entryDx=0;entryDy=0;endArrow=none;startFill=0;" edge="1" parent="1" source="khPAnHHUB-JNYANj07W6-8" target="khPAnHHUB-JNYANj07W6-93">
          <mxGeometry relative="1" as="geometry" />
        </mxCell>
        <mxCell id="khPAnHHUB-JNYANj07W6-107" style="edgeStyle=orthogonalEdgeStyle;rounded=0;orthogonalLoop=1;jettySize=auto;html=1;exitX=0.25;exitY=0;exitDx=0;exitDy=0;entryX=0;entryY=0.5;entryDx=0;entryDy=0;endArrow=none;startFill=0;" edge="1" parent="1" source="khPAnHHUB-JNYANj07W6-8" target="khPAnHHUB-JNYANj07W6-108">
          <mxGeometry relative="1" as="geometry">
            <mxPoint x="-800.6633333333334" y="-310" as="targetPoint" />
            <Array as="points">
              <mxPoint x="-297" y="280" />
              <mxPoint x="-630" y="280" />
              <mxPoint x="-630" y="590" />
              <mxPoint x="-800" y="590" />
              <mxPoint x="-800" y="-330" />
              <mxPoint x="-411" y="-330" />
            </Array>
          </mxGeometry>
        </mxCell>
        <mxCell id="khPAnHHUB-JNYANj07W6-112" style="edgeStyle=orthogonalEdgeStyle;rounded=0;orthogonalLoop=1;jettySize=auto;html=1;exitX=0.25;exitY=1;exitDx=0;exitDy=0;entryX=0;entryY=0.5;entryDx=0;entryDy=0;endArrow=none;startFill=0;" edge="1" parent="1" source="khPAnHHUB-JNYANj07W6-8" target="khPAnHHUB-JNYANj07W6-111">
          <mxGeometry relative="1" as="geometry" />
        </mxCell>
        <mxCell id="khPAnHHUB-JNYANj07W6-8" value="&lt;font style=&quot;font-size: 18px;&quot;&gt;Driver&lt;/font&gt;" style="rounded=1;whiteSpace=wrap;html=1;fillColor=#fff2cc;strokeColor=#d6b656;strokeWidth=5;" vertex="1" parent="1">
          <mxGeometry x="-327.33" y="360" width="120" height="60" as="geometry" />
        </mxCell>
        <mxCell id="khPAnHHUB-JNYANj07W6-91" style="rounded=0;orthogonalLoop=1;jettySize=auto;html=1;exitX=0.75;exitY=1;exitDx=0;exitDy=0;entryX=0;entryY=0;entryDx=0;entryDy=0;endArrow=none;startFill=0;" edge="1" parent="1" source="khPAnHHUB-JNYANj07W6-9" target="khPAnHHUB-JNYANj07W6-90">
          <mxGeometry relative="1" as="geometry" />
        </mxCell>
        <mxCell id="khPAnHHUB-JNYANj07W6-92" style="rounded=0;orthogonalLoop=1;jettySize=auto;html=1;exitX=1;exitY=0.25;exitDx=0;exitDy=0;endArrow=none;startFill=0;" edge="1" parent="1" source="khPAnHHUB-JNYANj07W6-9" target="khPAnHHUB-JNYANj07W6-89">
          <mxGeometry relative="1" as="geometry" />
        </mxCell>
        <mxCell id="khPAnHHUB-JNYANj07W6-96" style="edgeStyle=orthogonalEdgeStyle;rounded=0;orthogonalLoop=1;jettySize=auto;html=1;exitX=0.75;exitY=0;exitDx=0;exitDy=0;endArrow=none;startFill=0;" edge="1" parent="1" source="khPAnHHUB-JNYANj07W6-9" target="khPAnHHUB-JNYANj07W6-97">
          <mxGeometry relative="1" as="geometry">
            <mxPoint x="252.67" y="-20" as="targetPoint" />
            <Array as="points">
              <mxPoint x="-67" />
              <mxPoint x="503" />
            </Array>
          </mxGeometry>
        </mxCell>
        <mxCell id="khPAnHHUB-JNYANj07W6-104" style="edgeStyle=orthogonalEdgeStyle;rounded=0;orthogonalLoop=1;jettySize=auto;html=1;exitX=1;exitY=0.5;exitDx=0;exitDy=0;entryX=0;entryY=0.5;entryDx=0;entryDy=0;endArrow=none;startFill=0;" edge="1" parent="1" source="khPAnHHUB-JNYANj07W6-9" target="khPAnHHUB-JNYANj07W6-105">
          <mxGeometry relative="1" as="geometry">
            <mxPoint x="762.67" y="-90" as="targetPoint" />
            <Array as="points">
              <mxPoint x="-37" y="40" />
              <mxPoint x="743" y="40" />
              <mxPoint x="743" y="-110" />
            </Array>
          </mxGeometry>
        </mxCell>
        <mxCell id="khPAnHHUB-JNYANj07W6-115" style="edgeStyle=orthogonalEdgeStyle;rounded=0;orthogonalLoop=1;jettySize=auto;html=1;exitX=1;exitY=0.5;exitDx=0;exitDy=0;endArrow=none;startFill=0;" edge="1" parent="1" source="khPAnHHUB-JNYANj07W6-9" target="khPAnHHUB-JNYANj07W6-116">
          <mxGeometry relative="1" as="geometry">
            <mxPoint x="452.67" y="154.5" as="targetPoint" />
            <Array as="points">
              <mxPoint x="-37" y="160" />
            </Array>
          </mxGeometry>
        </mxCell>
        <mxCell id="khPAnHHUB-JNYANj07W6-9" value="&lt;font&gt;Customer&amp;nbsp;&lt;/font&gt;" style="rounded=1;whiteSpace=wrap;html=1;fillColor=#fff2cc;strokeColor=#d6b656;strokeWidth=5;fontSize=18;" vertex="1" parent="1">
          <mxGeometry x="-157.33" y="125" width="120" height="60" as="geometry" />
        </mxCell>
        <mxCell id="khPAnHHUB-JNYANj07W6-76" style="rounded=0;orthogonalLoop=1;jettySize=auto;html=1;exitX=1;exitY=0;exitDx=0;exitDy=0;entryX=0;entryY=1;entryDx=0;entryDy=0;endArrow=none;startFill=0;" edge="1" parent="1" source="khPAnHHUB-JNYANj07W6-10" target="khPAnHHUB-JNYANj07W6-75">
          <mxGeometry relative="1" as="geometry" />
        </mxCell>
        <mxCell id="khPAnHHUB-JNYANj07W6-77" style="rounded=0;orthogonalLoop=1;jettySize=auto;html=1;exitX=1;exitY=0.5;exitDx=0;exitDy=0;entryX=0;entryY=0.5;entryDx=0;entryDy=0;endArrow=none;startFill=0;" edge="1" parent="1" source="khPAnHHUB-JNYANj07W6-10" target="khPAnHHUB-JNYANj07W6-73">
          <mxGeometry relative="1" as="geometry" />
        </mxCell>
        <mxCell id="khPAnHHUB-JNYANj07W6-78" style="rounded=0;orthogonalLoop=1;jettySize=auto;html=1;exitX=0.75;exitY=0;exitDx=0;exitDy=0;entryX=0.5;entryY=1;entryDx=0;entryDy=0;endArrow=none;startFill=0;" edge="1" parent="1" source="khPAnHHUB-JNYANj07W6-10" target="khPAnHHUB-JNYANj07W6-72">
          <mxGeometry relative="1" as="geometry" />
        </mxCell>
        <mxCell id="khPAnHHUB-JNYANj07W6-79" style="rounded=0;orthogonalLoop=1;jettySize=auto;html=1;exitX=0.25;exitY=0;exitDx=0;exitDy=0;entryX=1;entryY=1;entryDx=0;entryDy=0;endArrow=none;startFill=0;" edge="1" parent="1" source="khPAnHHUB-JNYANj07W6-10" target="khPAnHHUB-JNYANj07W6-71">
          <mxGeometry relative="1" as="geometry" />
        </mxCell>
        <mxCell id="khPAnHHUB-JNYANj07W6-80" style="rounded=0;orthogonalLoop=1;jettySize=auto;html=1;exitX=0;exitY=0.5;exitDx=0;exitDy=0;endArrow=none;startFill=0;" edge="1" parent="1" source="khPAnHHUB-JNYANj07W6-10" target="khPAnHHUB-JNYANj07W6-74">
          <mxGeometry relative="1" as="geometry" />
        </mxCell>
        <mxCell id="khPAnHHUB-JNYANj07W6-10" value="&lt;span id=&quot;docs-internal-guid-d4c6bc68-7fff-11b0-b153-2277f125f485&quot;&gt;&lt;span style=&quot;font-variant-numeric: normal; font-variant-east-asian: normal; font-variant-alternates: normal; font-variant-position: normal; font-variant-emoji: normal; vertical-align: baseline; white-space-collapse: preserve;&quot;&gt;&lt;font style=&quot;&quot; face=&quot;Helvetica&quot;&gt;Complaints&lt;/font&gt;&lt;/span&gt;&lt;/span&gt;" style="rounded=1;whiteSpace=wrap;html=1;fillColor=#fff2cc;strokeColor=#d6b656;strokeWidth=5;fontSize=18;" vertex="1" parent="1">
          <mxGeometry x="1262.67" y="280" width="120" height="60" as="geometry" />
        </mxCell>
        <mxCell id="khPAnHHUB-JNYANj07W6-58" style="rounded=0;orthogonalLoop=1;jettySize=auto;html=1;exitX=0.917;exitY=0.167;exitDx=0;exitDy=0;entryX=0.058;entryY=0.683;entryDx=0;entryDy=0;endArrow=none;startFill=0;exitPerimeter=0;entryPerimeter=0;" edge="1" parent="1" source="khPAnHHUB-JNYANj07W6-11" target="khPAnHHUB-JNYANj07W6-56">
          <mxGeometry relative="1" as="geometry" />
        </mxCell>
        <mxCell id="khPAnHHUB-JNYANj07W6-59" style="rounded=0;orthogonalLoop=1;jettySize=auto;html=1;exitX=1;exitY=0.5;exitDx=0;exitDy=0;endArrow=none;startFill=0;" edge="1" parent="1" source="khPAnHHUB-JNYANj07W6-11" target="khPAnHHUB-JNYANj07W6-57">
          <mxGeometry relative="1" as="geometry" />
        </mxCell>
        <mxCell id="khPAnHHUB-JNYANj07W6-60" style="rounded=0;orthogonalLoop=1;jettySize=auto;html=1;exitX=0.5;exitY=0;exitDx=0;exitDy=0;endArrow=none;startFill=0;" edge="1" parent="1" source="khPAnHHUB-JNYANj07W6-11" target="khPAnHHUB-JNYANj07W6-55">
          <mxGeometry relative="1" as="geometry" />
        </mxCell>
        <mxCell id="khPAnHHUB-JNYANj07W6-61" style="rounded=0;orthogonalLoop=1;jettySize=auto;html=1;exitX=0;exitY=0;exitDx=0;exitDy=0;entryX=0.982;entryY=0.728;entryDx=0;entryDy=0;endArrow=none;startFill=0;entryPerimeter=0;" edge="1" parent="1" source="khPAnHHUB-JNYANj07W6-11" target="khPAnHHUB-JNYANj07W6-53">
          <mxGeometry relative="1" as="geometry" />
        </mxCell>
        <mxCell id="khPAnHHUB-JNYANj07W6-102" style="edgeStyle=orthogonalEdgeStyle;rounded=0;orthogonalLoop=1;jettySize=auto;html=1;exitX=0.75;exitY=1;exitDx=0;exitDy=0;entryX=0;entryY=0.5;entryDx=0;entryDy=0;endArrow=none;startFill=0;" edge="1" parent="1" source="khPAnHHUB-JNYANj07W6-11" target="khPAnHHUB-JNYANj07W6-100">
          <mxGeometry relative="1" as="geometry">
            <Array as="points">
              <mxPoint x="533" y="-230" />
            </Array>
          </mxGeometry>
        </mxCell>
        <mxCell id="khPAnHHUB-JNYANj07W6-109" style="edgeStyle=orthogonalEdgeStyle;rounded=0;orthogonalLoop=1;jettySize=auto;html=1;exitX=0;exitY=0.25;exitDx=0;exitDy=0;entryX=1;entryY=0.5;entryDx=0;entryDy=0;endArrow=none;startFill=0;" edge="1" parent="1" source="khPAnHHUB-JNYANj07W6-11" target="khPAnHHUB-JNYANj07W6-108">
          <mxGeometry relative="1" as="geometry">
            <Array as="points">
              <mxPoint x="-257" y="-335" />
            </Array>
          </mxGeometry>
        </mxCell>
        <mxCell id="khPAnHHUB-JNYANj07W6-11" value="&lt;font&gt;Ride&lt;/font&gt;" style="rounded=1;whiteSpace=wrap;html=1;fillColor=#fff2cc;strokeColor=#d6b656;strokeWidth=5;fontSize=18;" vertex="1" parent="1">
          <mxGeometry x="442.67" y="-350" width="120" height="60" as="geometry" />
        </mxCell>
        <mxCell id="khPAnHHUB-JNYANj07W6-48" style="rounded=0;orthogonalLoop=1;jettySize=auto;html=1;exitX=0;exitY=0.5;exitDx=0;exitDy=0;entryX=1;entryY=0.5;entryDx=0;entryDy=0;endArrow=none;startFill=0;" edge="1" parent="1" source="khPAnHHUB-JNYANj07W6-12" target="khPAnHHUB-JNYANj07W6-47">
          <mxGeometry relative="1" as="geometry" />
        </mxCell>
        <mxCell id="khPAnHHUB-JNYANj07W6-49" style="rounded=0;orthogonalLoop=1;jettySize=auto;html=1;exitX=0;exitY=0;exitDx=0;exitDy=0;entryX=1;entryY=1;entryDx=0;entryDy=0;endArrow=none;startFill=0;" edge="1" parent="1" source="khPAnHHUB-JNYANj07W6-12" target="khPAnHHUB-JNYANj07W6-43">
          <mxGeometry relative="1" as="geometry" />
        </mxCell>
        <mxCell id="khPAnHHUB-JNYANj07W6-50" style="rounded=0;orthogonalLoop=1;jettySize=auto;html=1;exitX=0.5;exitY=0;exitDx=0;exitDy=0;entryX=0.5;entryY=1;entryDx=0;entryDy=0;endArrow=none;startFill=0;" edge="1" parent="1" source="khPAnHHUB-JNYANj07W6-12" target="khPAnHHUB-JNYANj07W6-44">
          <mxGeometry relative="1" as="geometry" />
        </mxCell>
        <mxCell id="khPAnHHUB-JNYANj07W6-52" style="rounded=0;orthogonalLoop=1;jettySize=auto;html=1;exitX=1;exitY=0.75;exitDx=0;exitDy=0;endArrow=none;startFill=0;" edge="1" parent="1" source="khPAnHHUB-JNYANj07W6-12" target="khPAnHHUB-JNYANj07W6-46">
          <mxGeometry relative="1" as="geometry" />
        </mxCell>
        <mxCell id="khPAnHHUB-JNYANj07W6-12" value="&lt;font&gt;Car&lt;/font&gt;" style="rounded=1;whiteSpace=wrap;html=1;fillColor=#fff2cc;strokeColor=#d6b656;strokeWidth=5;fontSize=18;" vertex="1" parent="1">
          <mxGeometry x="482.67" y="400" width="120" height="60" as="geometry" />
        </mxCell>
        <mxCell id="khPAnHHUB-JNYANj07W6-67" style="rounded=0;orthogonalLoop=1;jettySize=auto;html=1;exitX=1;exitY=0.5;exitDx=0;exitDy=0;entryX=0;entryY=1;entryDx=0;entryDy=0;endArrow=none;startFill=0;" edge="1" parent="1" source="khPAnHHUB-JNYANj07W6-13" target="khPAnHHUB-JNYANj07W6-65">
          <mxGeometry relative="1" as="geometry" />
        </mxCell>
        <mxCell id="khPAnHHUB-JNYANj07W6-68" style="rounded=0;orthogonalLoop=1;jettySize=auto;html=1;exitX=0.75;exitY=0;exitDx=0;exitDy=0;entryX=0.5;entryY=1;entryDx=0;entryDy=0;endArrow=none;startFill=0;" edge="1" parent="1" source="khPAnHHUB-JNYANj07W6-13" target="khPAnHHUB-JNYANj07W6-66">
          <mxGeometry relative="1" as="geometry" />
        </mxCell>
        <mxCell id="khPAnHHUB-JNYANj07W6-69" style="rounded=0;orthogonalLoop=1;jettySize=auto;html=1;exitX=0.25;exitY=0;exitDx=0;exitDy=0;endArrow=none;startFill=0;" edge="1" parent="1" source="khPAnHHUB-JNYANj07W6-13" target="khPAnHHUB-JNYANj07W6-64">
          <mxGeometry relative="1" as="geometry" />
        </mxCell>
        <mxCell id="khPAnHHUB-JNYANj07W6-70" style="rounded=0;orthogonalLoop=1;jettySize=auto;html=1;exitX=0;exitY=0.5;exitDx=0;exitDy=0;entryX=1;entryY=1;entryDx=0;entryDy=0;endArrow=none;startFill=0;" edge="1" parent="1" source="khPAnHHUB-JNYANj07W6-13" target="khPAnHHUB-JNYANj07W6-63">
          <mxGeometry relative="1" as="geometry" />
        </mxCell>
        <mxCell id="khPAnHHUB-JNYANj07W6-13" value="&lt;font&gt;payment&lt;/font&gt;" style="rounded=1;whiteSpace=wrap;html=1;fillColor=#fff2cc;strokeColor=#d6b656;strokeWidth=5;fontSize=18;" vertex="1" parent="1">
          <mxGeometry x="1102.67" y="-450" width="120" height="60" as="geometry" />
        </mxCell>
        <mxCell id="khPAnHHUB-JNYANj07W6-41" style="rounded=0;orthogonalLoop=1;jettySize=auto;html=1;exitX=1;exitY=0.5;exitDx=0;exitDy=0;startArrow=none;startFill=0;endArrow=none;" edge="1" parent="1" source="khPAnHHUB-JNYANj07W6-14" target="khPAnHHUB-JNYANj07W6-27">
          <mxGeometry relative="1" as="geometry" />
        </mxCell>
        <mxCell id="khPAnHHUB-JNYANj07W6-42" style="rounded=0;orthogonalLoop=1;jettySize=auto;html=1;exitX=0.75;exitY=0;exitDx=0;exitDy=0;startArrow=none;startFill=0;endArrow=none;" edge="1" parent="1" source="khPAnHHUB-JNYANj07W6-14" target="khPAnHHUB-JNYANj07W6-26">
          <mxGeometry relative="1" as="geometry" />
        </mxCell>
        <mxCell id="khPAnHHUB-JNYANj07W6-14" value="&lt;font style=&quot;font-size: 18px;&quot;&gt;User&lt;/font&gt;" style="rounded=1;whiteSpace=wrap;html=1;fillColor=#fff2cc;strokeColor=#d6b656;strokeWidth=5;" vertex="1" parent="1">
          <mxGeometry x="-327.33" y="-55" width="120" height="60" as="geometry" />
        </mxCell>
        <mxCell id="khPAnHHUB-JNYANj07W6-15" value="&lt;font&gt;Manager&amp;nbsp;&lt;/font&gt;" style="rounded=1;whiteSpace=wrap;html=1;fillColor=#fff2cc;strokeColor=#d6b656;strokeWidth=5;fontSize=18;" vertex="1" parent="1">
          <mxGeometry x="-527.33" y="155" width="120" height="60" as="geometry" />
        </mxCell>
        <mxCell id="khPAnHHUB-JNYANj07W6-21" style="rounded=0;orthogonalLoop=1;jettySize=auto;html=1;exitX=0.5;exitY=1;exitDx=0;exitDy=0;entryX=0.5;entryY=0;entryDx=0;entryDy=0;endArrow=none;startFill=0;" edge="1" parent="1" source="khPAnHHUB-JNYANj07W6-16" target="khPAnHHUB-JNYANj07W6-15">
          <mxGeometry relative="1" as="geometry" />
        </mxCell>
        <mxCell id="khPAnHHUB-JNYANj07W6-22" style="rounded=0;orthogonalLoop=1;jettySize=auto;html=1;exitX=0.5;exitY=1;exitDx=0;exitDy=0;entryX=0.5;entryY=0;entryDx=0;entryDy=0;endArrow=none;startFill=0;" edge="1" parent="1" source="khPAnHHUB-JNYANj07W6-16" target="khPAnHHUB-JNYANj07W6-9">
          <mxGeometry relative="1" as="geometry" />
        </mxCell>
        <mxCell id="khPAnHHUB-JNYANj07W6-23" style="rounded=0;orthogonalLoop=1;jettySize=auto;html=1;exitX=0.5;exitY=1;exitDx=0;exitDy=0;entryX=0.5;entryY=0;entryDx=0;entryDy=0;endArrow=none;startFill=0;" edge="1" parent="1" source="khPAnHHUB-JNYANj07W6-16" target="khPAnHHUB-JNYANj07W6-8">
          <mxGeometry relative="1" as="geometry" />
        </mxCell>
        <mxCell id="khPAnHHUB-JNYANj07W6-16" value="&lt;font style=&quot;font-size: 18px;&quot;&gt;d&lt;/font&gt;" style="ellipse;whiteSpace=wrap;html=1;aspect=fixed;fillColor=#dae8fc;strokeColor=#6c8ebf;perimeterSpacing=2;strokeWidth=4;" vertex="1" parent="1">
          <mxGeometry x="-287.33" y="55" width="40" height="40" as="geometry" />
        </mxCell>
        <mxCell id="khPAnHHUB-JNYANj07W6-18" value="" style="endArrow=none;html=1;rounded=0;entryX=0.5;entryY=1;entryDx=0;entryDy=0;exitX=0.5;exitY=0;exitDx=0;exitDy=0;shape=link;" edge="1" parent="1">
          <mxGeometry width="50" height="50" relative="1" as="geometry">
            <mxPoint x="-267.83" y="55" as="sourcePoint" />
            <mxPoint x="-267.83" y="5" as="targetPoint" />
          </mxGeometry>
        </mxCell>
        <mxCell id="khPAnHHUB-JNYANj07W6-34" style="rounded=0;orthogonalLoop=1;jettySize=auto;html=1;exitX=0;exitY=0.5;exitDx=0;exitDy=0;entryX=1;entryY=0.5;entryDx=0;entryDy=0;endArrow=none;startFill=0;" edge="1" parent="1" source="khPAnHHUB-JNYANj07W6-24" target="khPAnHHUB-JNYANj07W6-28">
          <mxGeometry relative="1" as="geometry">
            <mxPoint x="-647.3299999999999" y="-25" as="targetPoint" />
          </mxGeometry>
        </mxCell>
        <mxCell id="khPAnHHUB-JNYANj07W6-24" value="&lt;font style=&quot;font-size: 18px;&quot;&gt;name&lt;/font&gt;" style="ellipse;whiteSpace=wrap;html=1;fillColor=#ffe6cc;strokeColor=#d79b00;strokeWidth=4;" vertex="1" parent="1">
          <mxGeometry x="-527.33" y="-65" width="120" height="80" as="geometry" />
        </mxCell>
        <mxCell id="khPAnHHUB-JNYANj07W6-25" value="&lt;font style=&quot;font-size: 18px;&quot;&gt;Email&amp;nbsp;&lt;/font&gt;" style="ellipse;whiteSpace=wrap;html=1;fillColor=#ffe6cc;strokeColor=#d79b00;strokeWidth=4;" vertex="1" parent="1">
          <mxGeometry x="-397.33" y="-195" width="120" height="80" as="geometry" />
        </mxCell>
        <mxCell id="khPAnHHUB-JNYANj07W6-26" value="&lt;font style=&quot;font-size: 18px;&quot;&gt;Password&amp;nbsp;&lt;/font&gt;" style="ellipse;whiteSpace=wrap;html=1;fillColor=#ffe6cc;strokeColor=#d79b00;strokeWidth=4;" vertex="1" parent="1">
          <mxGeometry x="-247.33" y="-195" width="120" height="80" as="geometry" />
        </mxCell>
        <mxCell id="khPAnHHUB-JNYANj07W6-27" value="&lt;u style=&quot;&quot;&gt;&lt;font style=&quot;font-size: 18px;&quot;&gt;ID&lt;/font&gt;&lt;/u&gt;" style="ellipse;whiteSpace=wrap;html=1;fillColor=#ffe6cc;strokeColor=#d79b00;strokeWidth=4;" vertex="1" parent="1">
          <mxGeometry x="-137.33" y="-105" width="120" height="80" as="geometry" />
        </mxCell>
        <mxCell id="khPAnHHUB-JNYANj07W6-28" value="&lt;font style=&quot;font-size: 18px;&quot;&gt;first name&lt;/font&gt;" style="ellipse;whiteSpace=wrap;html=1;fillColor=#ffcc99;strokeColor=#36393d;strokeWidth=3;" vertex="1" parent="1">
          <mxGeometry x="-750" y="-55" width="120" height="80" as="geometry" />
        </mxCell>
        <mxCell id="khPAnHHUB-JNYANj07W6-29" value="&lt;font style=&quot;font-size: 18px;&quot;&gt;last name&lt;/font&gt;" style="ellipse;whiteSpace=wrap;html=1;fillColor=#ffcc99;strokeColor=#36393d;strokeWidth=3;" vertex="1" parent="1">
          <mxGeometry x="-577.33" y="-195" width="120" height="80" as="geometry" />
        </mxCell>
        <mxCell id="khPAnHHUB-JNYANj07W6-30" value="&lt;font style=&quot;font-size: 18px;&quot;&gt;Middle name&lt;/font&gt;" style="ellipse;whiteSpace=wrap;html=1;fillColor=#ffcc99;strokeColor=#36393d;strokeWidth=3;" vertex="1" parent="1">
          <mxGeometry x="-727.33" y="-155" width="120" height="80" as="geometry" />
        </mxCell>
        <mxCell id="khPAnHHUB-JNYANj07W6-35" style="rounded=0;orthogonalLoop=1;jettySize=auto;html=1;exitX=0;exitY=0;exitDx=0;exitDy=0;entryX=0.918;entryY=0.818;entryDx=0;entryDy=0;entryPerimeter=0;endArrow=none;startFill=0;" edge="1" parent="1" source="khPAnHHUB-JNYANj07W6-24" target="khPAnHHUB-JNYANj07W6-30">
          <mxGeometry relative="1" as="geometry" />
        </mxCell>
        <mxCell id="khPAnHHUB-JNYANj07W6-36" style="rounded=0;orthogonalLoop=1;jettySize=auto;html=1;exitX=0.5;exitY=0;exitDx=0;exitDy=0;entryX=0.581;entryY=1.039;entryDx=0;entryDy=0;entryPerimeter=0;endArrow=none;startFill=0;" edge="1" parent="1" source="khPAnHHUB-JNYANj07W6-24" target="khPAnHHUB-JNYANj07W6-29">
          <mxGeometry relative="1" as="geometry" />
        </mxCell>
        <mxCell id="khPAnHHUB-JNYANj07W6-39" style="rounded=0;orthogonalLoop=1;jettySize=auto;html=1;exitX=1;exitY=0.5;exitDx=0;exitDy=0;entryX=-0.014;entryY=0.372;entryDx=0;entryDy=0;entryPerimeter=0;startArrow=none;startFill=0;endArrow=none;" edge="1" parent="1" source="khPAnHHUB-JNYANj07W6-24" target="khPAnHHUB-JNYANj07W6-14">
          <mxGeometry relative="1" as="geometry" />
        </mxCell>
        <mxCell id="khPAnHHUB-JNYANj07W6-40" style="rounded=0;orthogonalLoop=1;jettySize=auto;html=1;exitX=0.5;exitY=1;exitDx=0;exitDy=0;entryX=0.303;entryY=0.006;entryDx=0;entryDy=0;entryPerimeter=0;startArrow=none;startFill=0;endArrow=none;" edge="1" parent="1" source="khPAnHHUB-JNYANj07W6-25" target="khPAnHHUB-JNYANj07W6-14">
          <mxGeometry relative="1" as="geometry" />
        </mxCell>
        <mxCell id="khPAnHHUB-JNYANj07W6-43" value="Status&amp;nbsp;" style="ellipse;whiteSpace=wrap;html=1;fillColor=#ffe6cc;strokeColor=#d79b00;strokeWidth=4;fontSize=18;" vertex="1" parent="1">
          <mxGeometry x="312.67" y="300" width="120" height="80" as="geometry" />
        </mxCell>
        <mxCell id="khPAnHHUB-JNYANj07W6-44" value="model" style="ellipse;whiteSpace=wrap;html=1;fillColor=#ffe6cc;strokeColor=#d79b00;strokeWidth=4;fontSize=18;" vertex="1" parent="1">
          <mxGeometry x="492.67" y="260" width="120" height="80" as="geometry" />
        </mxCell>
        <mxCell id="khPAnHHUB-JNYANj07W6-45" value="type" style="ellipse;whiteSpace=wrap;html=1;fillColor=#ffe6cc;strokeColor=#d79b00;strokeWidth=4;fontSize=18;" vertex="1" parent="1">
          <mxGeometry x="642.67" y="300" width="120" height="80" as="geometry" />
        </mxCell>
        <mxCell id="khPAnHHUB-JNYANj07W6-46" value="&lt;span id=&quot;docs-internal-guid-5886de03-7fff-0da4-6772-a483f1f5c490&quot;&gt;&lt;span style=&quot;font-family: Arial, sans-serif; background-color: transparent; font-variant-numeric: normal; font-variant-east-asian: normal; font-variant-alternates: normal; font-variant-position: normal; font-variant-emoji: normal; vertical-align: baseline; white-space-collapse: preserve;&quot;&gt;&lt;b&gt;&lt;u&gt;plate number&lt;/u&gt;&lt;/b&gt;&lt;/span&gt;&lt;/span&gt;" style="ellipse;whiteSpace=wrap;html=1;fillColor=#ffe6cc;strokeColor=#d79b00;strokeWidth=4;fontSize=18;" vertex="1" parent="1">
          <mxGeometry x="662.67" y="400" width="120" height="80" as="geometry" />
        </mxCell>
        <mxCell id="khPAnHHUB-JNYANj07W6-47" value="fuellevel" style="ellipse;whiteSpace=wrap;html=1;fillColor=#ffe6cc;strokeColor=#d79b00;strokeWidth=4;fontSize=18;" vertex="1" parent="1">
          <mxGeometry x="292.67" y="400" width="120" height="80" as="geometry" />
        </mxCell>
        <mxCell id="khPAnHHUB-JNYANj07W6-51" style="rounded=0;orthogonalLoop=1;jettySize=auto;html=1;exitX=1;exitY=0.25;exitDx=0;exitDy=0;entryX=-0.021;entryY=0.65;entryDx=0;entryDy=0;entryPerimeter=0;endArrow=none;startFill=0;" edge="1" parent="1" source="khPAnHHUB-JNYANj07W6-12" target="khPAnHHUB-JNYANj07W6-45">
          <mxGeometry relative="1" as="geometry" />
        </mxCell>
        <mxCell id="khPAnHHUB-JNYANj07W6-53" value="Destination&amp;nbsp;" style="ellipse;whiteSpace=wrap;html=1;fillColor=#ffe6cc;strokeColor=#d79b00;strokeWidth=4;fontSize=18;" vertex="1" parent="1">
          <mxGeometry x="262.67" y="-480" width="120" height="80" as="geometry" />
        </mxCell>
        <mxCell id="khPAnHHUB-JNYANj07W6-54" value="&lt;b&gt;&lt;u&gt;ID&lt;/u&gt;&lt;/b&gt;" style="ellipse;whiteSpace=wrap;html=1;fillColor=#ffe6cc;strokeColor=#d79b00;strokeWidth=4;fontSize=18;" vertex="1" parent="1">
          <mxGeometry x="240" y="-310" width="120" height="80" as="geometry" />
        </mxCell>
        <mxCell id="khPAnHHUB-JNYANj07W6-55" value="start location" style="ellipse;whiteSpace=wrap;html=1;fillColor=#ffe6cc;strokeColor=#d79b00;strokeWidth=4;fontSize=18;" vertex="1" parent="1">
          <mxGeometry x="442.67" y="-510" width="120" height="80" as="geometry" />
        </mxCell>
        <mxCell id="khPAnHHUB-JNYANj07W6-56" value="cost" style="ellipse;whiteSpace=wrap;html=1;fillColor=#ffe6cc;strokeColor=#d79b00;strokeWidth=4;fontSize=18;" vertex="1" parent="1">
          <mxGeometry x="592.67" y="-450" width="120" height="80" as="geometry" />
        </mxCell>
        <mxCell id="khPAnHHUB-JNYANj07W6-57" value="status" style="ellipse;whiteSpace=wrap;html=1;fillColor=#ffe6cc;strokeColor=#d79b00;strokeWidth=4;fontSize=18;" vertex="1" parent="1">
          <mxGeometry x="612.67" y="-340" width="120" height="80" as="geometry" />
        </mxCell>
        <mxCell id="khPAnHHUB-JNYANj07W6-62" style="rounded=0;orthogonalLoop=1;jettySize=auto;html=1;exitX=0;exitY=0.5;exitDx=0;exitDy=0;entryX=0.989;entryY=0.376;entryDx=0;entryDy=0;entryPerimeter=0;endArrow=none;startFill=0;" edge="1" parent="1" source="khPAnHHUB-JNYANj07W6-11" target="khPAnHHUB-JNYANj07W6-54">
          <mxGeometry relative="1" as="geometry" />
        </mxCell>
        <mxCell id="khPAnHHUB-JNYANj07W6-63" value="Method&amp;nbsp;" style="ellipse;whiteSpace=wrap;html=1;fillColor=#ffe6cc;strokeColor=#d79b00;strokeWidth=4;fontSize=18;" vertex="1" parent="1">
          <mxGeometry x="922.67" y="-510" width="120" height="80" as="geometry" />
        </mxCell>
        <mxCell id="khPAnHHUB-JNYANj07W6-64" value="Amount&amp;nbsp;" style="ellipse;whiteSpace=wrap;html=1;fillColor=#ffe6cc;strokeColor=#d79b00;strokeWidth=4;fontSize=18;" vertex="1" parent="1">
          <mxGeometry x="1032.67" y="-620" width="120" height="80" as="geometry" />
        </mxCell>
        <mxCell id="khPAnHHUB-JNYANj07W6-65" value="&lt;b&gt;&lt;u&gt;id&lt;/u&gt;&lt;/b&gt;" style="ellipse;whiteSpace=wrap;html=1;fillColor=#ffe6cc;strokeColor=#d79b00;strokeWidth=4;fontSize=18;" vertex="1" parent="1">
          <mxGeometry x="1272.67" y="-510" width="120" height="80" as="geometry" />
        </mxCell>
        <mxCell id="khPAnHHUB-JNYANj07W6-66" value="date" style="ellipse;whiteSpace=wrap;html=1;fillColor=#ffe6cc;strokeColor=#d79b00;strokeWidth=4;fontSize=18;" vertex="1" parent="1">
          <mxGeometry x="1172.67" y="-620" width="120" height="80" as="geometry" />
        </mxCell>
        <mxCell id="khPAnHHUB-JNYANj07W6-71" value="&lt;span id=&quot;docs-internal-guid-58fef42d-7fff-4c2b-b28e-feb81471e840&quot;&gt;&lt;span style=&quot;font-family: Arial, sans-serif; background-color: transparent; font-variant-numeric: normal; font-variant-east-asian: normal; font-variant-alternates: normal; font-variant-position: normal; font-variant-emoji: normal; vertical-align: baseline; white-space-collapse: preserve;&quot;&gt;description&lt;/span&gt;&lt;/span&gt;" style="ellipse;whiteSpace=wrap;html=1;fillColor=#ffe6cc;strokeColor=#d79b00;strokeWidth=4;fontSize=18;" vertex="1" parent="1">
          <mxGeometry x="1142.67" y="130" width="120" height="80" as="geometry" />
        </mxCell>
        <mxCell id="khPAnHHUB-JNYANj07W6-72" value="&lt;span id=&quot;docs-internal-guid-2fbc6e3a-7fff-ef7b-35bf-058a9c448d79&quot;&gt;&lt;span style=&quot;font-family: Arial, sans-serif; background-color: transparent; font-variant-numeric: normal; font-variant-east-asian: normal; font-variant-alternates: normal; font-variant-position: normal; font-variant-emoji: normal; vertical-align: baseline; white-space-collapse: preserve;&quot;&gt;Feedback rating&lt;/span&gt;&lt;/span&gt;" style="ellipse;whiteSpace=wrap;html=1;fillColor=#ffe6cc;strokeColor=#d79b00;strokeWidth=4;fontSize=18;" vertex="1" parent="1">
          <mxGeometry x="1302.67" y="130" width="120" height="80" as="geometry" />
        </mxCell>
        <mxCell id="khPAnHHUB-JNYANj07W6-73" value="&lt;span id=&quot;docs-internal-guid-5de6a47f-7fff-07a4-2f92-d1249114d960&quot;&gt;&lt;span style=&quot;font-family: Arial, sans-serif; background-color: transparent; font-variant-numeric: normal; font-variant-east-asian: normal; font-variant-alternates: normal; font-variant-position: normal; font-variant-emoji: normal; vertical-align: baseline; white-space-collapse: preserve;&quot;&gt;Resolution status&lt;/span&gt;&lt;/span&gt;" style="ellipse;whiteSpace=wrap;html=1;fillColor=#ffe6cc;strokeColor=#d79b00;strokeWidth=4;fontSize=18;" vertex="1" parent="1">
          <mxGeometry x="1482.67" y="280" width="120" height="80" as="geometry" />
        </mxCell>
        <mxCell id="khPAnHHUB-JNYANj07W6-74" value="&lt;u&gt;&lt;b&gt;ID&lt;/b&gt;&lt;/u&gt;" style="ellipse;whiteSpace=wrap;html=1;fillColor=#ffe6cc;strokeColor=#d79b00;strokeWidth=4;fontSize=18;" vertex="1" parent="1">
          <mxGeometry x="1042.67" y="230" width="120" height="80" as="geometry" />
        </mxCell>
        <mxCell id="khPAnHHUB-JNYANj07W6-75" value="type" style="ellipse;whiteSpace=wrap;html=1;fillColor=#ffe6cc;strokeColor=#d79b00;strokeWidth=4;fontSize=18;" vertex="1" parent="1">
          <mxGeometry x="1432.67" y="170" width="120" height="80" as="geometry" />
        </mxCell>
        <mxCell id="khPAnHHUB-JNYANj07W6-81" value="&lt;font style=&quot;font-size: 18px;&quot;&gt;availability&lt;/font&gt;" style="ellipse;whiteSpace=wrap;html=1;fillColor=#ffe6cc;strokeColor=#d79b00;strokeWidth=4;" vertex="1" parent="1">
          <mxGeometry x="-527.33" y="310" width="120" height="80" as="geometry" />
        </mxCell>
        <mxCell id="khPAnHHUB-JNYANj07W6-82" value="&lt;u&gt;&lt;font style=&quot;font-size: 18px;&quot;&gt;license_number&lt;/font&gt;&lt;/u&gt;" style="ellipse;whiteSpace=wrap;html=1;fillColor=#ffe6cc;strokeColor=#d79b00;strokeWidth=4;" vertex="1" parent="1">
          <mxGeometry x="-580" y="420" width="172.67" height="80" as="geometry" />
        </mxCell>
        <mxCell id="khPAnHHUB-JNYANj07W6-83" value="&lt;font style=&quot;font-size: 18px;&quot;&gt;rating&lt;/font&gt;" style="ellipse;whiteSpace=wrap;html=1;fillColor=#ffe6cc;strokeColor=#d79b00;strokeWidth=4;" vertex="1" parent="1">
          <mxGeometry x="-187.33" y="290" width="120" height="80" as="geometry" />
        </mxCell>
        <mxCell id="khPAnHHUB-JNYANj07W6-89" value="&lt;u&gt;&lt;font&gt;user_id&lt;/font&gt;&lt;/u&gt;" style="ellipse;whiteSpace=wrap;html=1;fillColor=#ffe6cc;strokeColor=#d79b00;strokeWidth=4;fontSize=18;" vertex="1" parent="1">
          <mxGeometry x="12.67" y="45" width="120" height="80" as="geometry" />
        </mxCell>
        <mxCell id="khPAnHHUB-JNYANj07W6-90" value="&lt;font style=&quot;font-size: 18px;&quot;&gt;reward_points&lt;/font&gt;" style="ellipse;whiteSpace=wrap;html=1;fillColor=#ffe6cc;strokeColor=#d79b00;strokeWidth=4;" vertex="1" parent="1">
          <mxGeometry x="-57.33" y="215" width="147.33" height="80" as="geometry" />
        </mxCell>
        <mxCell id="khPAnHHUB-JNYANj07W6-95" style="edgeStyle=orthogonalEdgeStyle;rounded=0;orthogonalLoop=1;jettySize=auto;html=1;exitX=1;exitY=0.5;exitDx=0;exitDy=0;entryX=0.5;entryY=1;entryDx=0;entryDy=0;endArrow=none;startFill=0;" edge="1" parent="1" source="khPAnHHUB-JNYANj07W6-93" target="khPAnHHUB-JNYANj07W6-12">
          <mxGeometry relative="1" as="geometry" />
        </mxCell>
        <mxCell id="khPAnHHUB-JNYANj07W6-93" value="Relationship" style="shape=rhombus;perimeter=rhombusPerimeter;whiteSpace=wrap;html=1;align=center;fillColor=#ffff88;strokeColor=#36393d;strokeWidth=3;fontSize=18;" vertex="1" parent="1">
          <mxGeometry x="62.67" y="480" width="127.33" height="100" as="geometry" />
        </mxCell>
        <mxCell id="khPAnHHUB-JNYANj07W6-98" style="edgeStyle=orthogonalEdgeStyle;rounded=0;orthogonalLoop=1;jettySize=auto;html=1;exitX=0.5;exitY=0;exitDx=0;exitDy=0;entryX=0.5;entryY=1;entryDx=0;entryDy=0;endArrow=none;startFill=0;" edge="1" parent="1" source="khPAnHHUB-JNYANj07W6-97" target="khPAnHHUB-JNYANj07W6-11">
          <mxGeometry relative="1" as="geometry">
            <Array as="points">
              <mxPoint x="503" y="-160" />
            </Array>
          </mxGeometry>
        </mxCell>
        <mxCell id="khPAnHHUB-JNYANj07W6-97" value="Takes" style="shape=rhombus;perimeter=rhombusPerimeter;whiteSpace=wrap;html=1;align=center;fillColor=#ffff88;strokeColor=#36393d;strokeWidth=3;fontSize=18;" vertex="1" parent="1">
          <mxGeometry x="436.34" y="-157.5" width="132.67" height="75" as="geometry" />
        </mxCell>
        <mxCell id="khPAnHHUB-JNYANj07W6-103" style="edgeStyle=orthogonalEdgeStyle;rounded=0;orthogonalLoop=1;jettySize=auto;html=1;exitX=1;exitY=0.5;exitDx=0;exitDy=0;entryX=0.5;entryY=1;entryDx=0;entryDy=0;endArrow=none;startFill=0;" edge="1" parent="1" source="khPAnHHUB-JNYANj07W6-100" target="khPAnHHUB-JNYANj07W6-13">
          <mxGeometry relative="1" as="geometry" />
        </mxCell>
        <mxCell id="khPAnHHUB-JNYANj07W6-100" value="HasPayment" style="shape=rhombus;perimeter=rhombusPerimeter;whiteSpace=wrap;html=1;align=center;fillColor=#ffff88;strokeColor=#36393d;strokeWidth=3;fontSize=18;" vertex="1" parent="1">
          <mxGeometry x="890" y="-270" width="152.67" height="80" as="geometry" />
        </mxCell>
        <mxCell id="khPAnHHUB-JNYANj07W6-106" style="edgeStyle=orthogonalEdgeStyle;rounded=0;orthogonalLoop=1;jettySize=auto;html=1;exitX=1;exitY=0.5;exitDx=0;exitDy=0;entryX=0.75;entryY=1;entryDx=0;entryDy=0;endArrow=none;startFill=0;" edge="1" parent="1" source="khPAnHHUB-JNYANj07W6-105" target="khPAnHHUB-JNYANj07W6-13">
          <mxGeometry relative="1" as="geometry" />
        </mxCell>
        <mxCell id="khPAnHHUB-JNYANj07W6-105" value="Pays" style="shape=rhombus;perimeter=rhombusPerimeter;whiteSpace=wrap;html=1;align=center;fillColor=#ffff88;strokeColor=#36393d;strokeWidth=3;fontSize=18;" vertex="1" parent="1">
          <mxGeometry x="922.67" y="-150" width="167.33" height="80" as="geometry" />
        </mxCell>
        <mxCell id="khPAnHHUB-JNYANj07W6-108" value="Drives" style="shape=rhombus;perimeter=rhombusPerimeter;whiteSpace=wrap;html=1;align=center;fillColor=#ffff88;strokeColor=#36393d;strokeWidth=3;fontSize=18;" vertex="1" parent="1">
          <mxGeometry x="-411.34" y="-380" width="162.67" height="80" as="geometry" />
        </mxCell>
        <mxCell id="khPAnHHUB-JNYANj07W6-114" style="edgeStyle=orthogonalEdgeStyle;rounded=0;orthogonalLoop=1;jettySize=auto;html=1;exitX=1;exitY=0.5;exitDx=0;exitDy=0;entryX=0.5;entryY=1;entryDx=0;entryDy=0;endArrow=none;startFill=0;" edge="1" parent="1" source="khPAnHHUB-JNYANj07W6-111" target="khPAnHHUB-JNYANj07W6-10">
          <mxGeometry relative="1" as="geometry" />
        </mxCell>
        <mxCell id="khPAnHHUB-JNYANj07W6-111" value="HasComplaint" style="shape=rhombus;perimeter=rhombusPerimeter;whiteSpace=wrap;html=1;align=center;fillColor=#ffff88;strokeColor=#36393d;strokeWidth=3;fontSize=18;" vertex="1" parent="1">
          <mxGeometry x="72.67" y="650" width="167.33" height="80" as="geometry" />
        </mxCell>
        <mxCell id="khPAnHHUB-JNYANj07W6-117" style="edgeStyle=orthogonalEdgeStyle;rounded=0;orthogonalLoop=1;jettySize=auto;html=1;exitX=1;exitY=0.5;exitDx=0;exitDy=0;entryX=0.25;entryY=1;entryDx=0;entryDy=0;endArrow=none;startFill=0;" edge="1" parent="1" source="khPAnHHUB-JNYANj07W6-116" target="khPAnHHUB-JNYANj07W6-10">
          <mxGeometry relative="1" as="geometry">
            <Array as="points">
              <mxPoint x="603" y="160" />
              <mxPoint x="850" y="160" />
              <mxPoint x="850" y="370" />
              <mxPoint x="1293" y="370" />
            </Array>
          </mxGeometry>
        </mxCell>
        <mxCell id="khPAnHHUB-JNYANj07W6-116" value="Submits" style="shape=rhombus;perimeter=rhombusPerimeter;whiteSpace=wrap;html=1;align=center;fillColor=#ffff88;strokeColor=#36393d;strokeWidth=3;fontSize=18;" vertex="1" parent="1">
          <mxGeometry x="425.34000000000003" y="120" width="177.33" height="84.5" as="geometry" />
        </mxCell>
        <mxCell id="khPAnHHUB-JNYANj07W6-118" value="&lt;b&gt;&lt;font style=&quot;font-size: 20px;&quot;&gt;1&lt;/font&gt;&lt;/b&gt;" style="text;strokeColor=none;fillColor=none;spacingLeft=4;spacingRight=4;overflow=hidden;rotatable=0;points=[[0,0.5],[1,0.5]];portConstraint=eastwest;fontSize=12;whiteSpace=wrap;html=1;" vertex="1" parent="1">
          <mxGeometry x="-260" y="490" width="40" height="30" as="geometry" />
        </mxCell>
        <mxCell id="khPAnHHUB-JNYANj07W6-119" value="&lt;b&gt;&lt;font style=&quot;font-size: 20px;&quot;&gt;1&lt;/font&gt;&lt;/b&gt;" style="text;strokeColor=none;fillColor=none;spacingLeft=4;spacingRight=4;overflow=hidden;rotatable=0;points=[[0,0.5],[1,0.5]];portConstraint=eastwest;fontSize=12;whiteSpace=wrap;html=1;" vertex="1" parent="1">
          <mxGeometry x="492.67" y="490" width="40" height="30" as="geometry" />
        </mxCell>
        <mxCell id="khPAnHHUB-JNYANj07W6-120" value="&lt;b&gt;&lt;font style=&quot;font-size: 20px;&quot;&gt;M&lt;/font&gt;&lt;/b&gt;" style="text;strokeColor=none;fillColor=none;spacingLeft=4;spacingRight=4;overflow=hidden;rotatable=0;points=[[0,0.5],[1,0.5]];portConstraint=eastwest;fontSize=12;whiteSpace=wrap;html=1;" vertex="1" parent="1">
          <mxGeometry x="22.670000000000016" y="-30" width="40" height="30" as="geometry" />
        </mxCell>
        <mxCell id="khPAnHHUB-JNYANj07W6-121" value="&lt;b&gt;&lt;font style=&quot;font-size: 20px;&quot;&gt;N&lt;/font&gt;&lt;/b&gt;" style="text;strokeColor=none;fillColor=none;spacingLeft=4;spacingRight=4;overflow=hidden;rotatable=0;points=[[0,0.5],[1,0.5]];portConstraint=eastwest;fontSize=12;whiteSpace=wrap;html=1;" vertex="1" parent="1">
          <mxGeometry x="452.67" y="-280" width="40" height="30" as="geometry" />
        </mxCell>
        <mxCell id="khPAnHHUB-JNYANj07W6-122" value="&lt;b&gt;&lt;font style=&quot;font-size: 20px;&quot;&gt;1&lt;/font&gt;&lt;/b&gt;" style="text;strokeColor=none;fillColor=none;spacingLeft=4;spacingRight=4;overflow=hidden;rotatable=0;points=[[0,0.5],[1,0.5]];portConstraint=eastwest;fontSize=12;whiteSpace=wrap;html=1;" vertex="1" parent="1">
          <mxGeometry x="540" y="-280" width="40" height="30" as="geometry" />
        </mxCell>
        <mxCell id="khPAnHHUB-JNYANj07W6-123" value="&lt;b&gt;&lt;font style=&quot;font-size: 20px;&quot;&gt;1&lt;/font&gt;&lt;/b&gt;" style="text;strokeColor=none;fillColor=none;spacingLeft=4;spacingRight=4;overflow=hidden;rotatable=0;points=[[0,0.5],[1,0.5]];portConstraint=eastwest;fontSize=12;whiteSpace=wrap;html=1;" vertex="1" parent="1">
          <mxGeometry x="1122.67" y="-380" width="40" height="30" as="geometry" />
        </mxCell>
        <mxCell id="khPAnHHUB-JNYANj07W6-124" value="&lt;b&gt;&lt;font style=&quot;font-size: 20px;&quot;&gt;N&lt;/font&gt;&lt;/b&gt;" style="text;strokeColor=none;fillColor=none;spacingLeft=4;spacingRight=4;overflow=hidden;rotatable=0;points=[[0,0.5],[1,0.5]];portConstraint=eastwest;fontSize=12;whiteSpace=wrap;html=1;" vertex="1" parent="1">
          <mxGeometry x="1200" y="-380" width="40" height="30" as="geometry" />
        </mxCell>
        <mxCell id="khPAnHHUB-JNYANj07W6-126" value="&lt;b&gt;&lt;font style=&quot;font-size: 20px;&quot;&gt;1&lt;/font&gt;&lt;/b&gt;" style="text;strokeColor=none;fillColor=none;spacingLeft=4;spacingRight=4;overflow=hidden;rotatable=0;points=[[0,0.5],[1,0.5]];portConstraint=eastwest;fontSize=12;whiteSpace=wrap;html=1;" vertex="1" parent="1">
          <mxGeometry x="72.67" y="5" width="40" height="30" as="geometry" />
        </mxCell>
        <mxCell id="khPAnHHUB-JNYANj07W6-127" value="&lt;b&gt;&lt;font style=&quot;font-size: 20px;&quot;&gt;1&lt;/font&gt;&lt;/b&gt;" style="text;strokeColor=none;fillColor=none;spacingLeft=4;spacingRight=4;overflow=hidden;rotatable=0;points=[[0,0.5],[1,0.5]];portConstraint=eastwest;fontSize=12;whiteSpace=wrap;html=1;" vertex="1" parent="1">
          <mxGeometry x="-260" y="650" width="40" height="30" as="geometry" />
        </mxCell>
        <mxCell id="khPAnHHUB-JNYANj07W6-128" value="&lt;b&gt;&lt;font style=&quot;font-size: 20px;&quot;&gt;N&lt;/font&gt;&lt;/b&gt;" style="text;strokeColor=none;fillColor=none;spacingLeft=4;spacingRight=4;overflow=hidden;rotatable=0;points=[[0,0.5],[1,0.5]];portConstraint=eastwest;fontSize=12;whiteSpace=wrap;html=1;" vertex="1" parent="1">
          <mxGeometry x="1290" y="385" width="40" height="30" as="geometry" />
        </mxCell>
        <mxCell id="khPAnHHUB-JNYANj07W6-129" value="&lt;b&gt;&lt;font style=&quot;font-size: 20px;&quot;&gt;N&lt;/font&gt;&lt;/b&gt;" style="text;strokeColor=none;fillColor=none;spacingLeft=4;spacingRight=4;overflow=hidden;rotatable=0;points=[[0,0.5],[1,0.5]];portConstraint=eastwest;fontSize=12;whiteSpace=wrap;html=1;" vertex="1" parent="1">
          <mxGeometry x="1212.67" y="335" width="40" height="30" as="geometry" />
        </mxCell>
        <mxCell id="khPAnHHUB-JNYANj07W6-130" value="&lt;b&gt;&lt;font style=&quot;font-size: 20px;&quot;&gt;1&lt;/font&gt;&lt;/b&gt;" style="text;strokeColor=none;fillColor=none;spacingLeft=4;spacingRight=4;overflow=hidden;rotatable=0;points=[[0,0.5],[1,0.5]];portConstraint=eastwest;fontSize=12;whiteSpace=wrap;html=1;" vertex="1" parent="1">
          <mxGeometry y="130" width="40" height="30" as="geometry" />
        </mxCell>
        <mxCell id="khPAnHHUB-JNYANj07W6-131" value="&lt;b&gt;&lt;font style=&quot;font-size: 20px;&quot;&gt;1&lt;/font&gt;&lt;/b&gt;" style="text;strokeColor=none;fillColor=none;spacingLeft=4;spacingRight=4;overflow=hidden;rotatable=0;points=[[0,0.5],[1,0.5]];portConstraint=eastwest;fontSize=12;whiteSpace=wrap;html=1;" vertex="1" parent="1">
          <mxGeometry x="-350" y="240" width="40" height="30" as="geometry" />
        </mxCell>
        <mxCell id="khPAnHHUB-JNYANj07W6-132" value="&lt;b&gt;&lt;font style=&quot;font-size: 20px;&quot;&gt;N&lt;/font&gt;&lt;/b&gt;" style="text;strokeColor=none;fillColor=none;spacingLeft=4;spacingRight=4;overflow=hidden;rotatable=0;points=[[0,0.5],[1,0.5]];portConstraint=eastwest;fontSize=12;whiteSpace=wrap;html=1;" vertex="1" parent="1">
          <mxGeometry x="360" y="-370" width="40" height="30" as="geometry" />
        </mxCell>
      </root>
    </mxGraphModel>
  </diagram>
</mxfile>
